<svg xmlns="http://www.w3.org/2000/svg" viewBox="0 0 900 500">
  <!-- WALL -->
  <rect width="900" height="500" fill="#FFF5CC"/>
  <!-- Halftone dot pattern on wall (subtle) -->
  <pattern id="dots" x="0" y="0" width="20" height="20" patternUnits="userSpaceOnUse">
    <circle cx="10" cy="10" r="1.5" fill="#E8D890" opacity="0.5"/>
  </pattern>
  <rect width="900" height="500" fill="url(#dots)"/>

  <!-- FLOOR -->
  <rect x="0" y="360" width="900" height="140" fill="#A0714A"/>
  <!-- Floor planks -->
  <line x1="0" y1="390" x2="900" y2="390" stroke="#8B5E3C" stroke-width="2"/>
  <line x1="0" y1="420" x2="900" y2="420" stroke="#8B5E3C" stroke-width="2"/>
  <line x1="0" y1="450" x2="900" y2="450" stroke="#8B5E3C" stroke-width="2"/>
  <line x1="0" y1="480" x2="900" y2="480" stroke="#8B5E3C" stroke-width="2"/>
  <!-- Vertical plank breaks -->
  <line x1="180" y1="360" x2="180" y2="500" stroke="#8B5E3C" stroke-width="1.5"/>
  <line x1="360" y1="360" x2="360" y2="500" stroke="#8B5E3C" stroke-width="1.5"/>
  <line x1="540" y1="360" x2="540" y2="500" stroke="#8B5E3C" stroke-width="1.5"/>
  <line x1="720" y1="360" x2="720" y2="500" stroke="#8B5E3C" stroke-width="1.5"/>
  <!-- Floor shine -->
  <rect x="0" y="360" width="900" height="8" fill="#B8855A" opacity="0.5"/>

  <!-- FLOOR-WALL BASEBOARD -->
  <rect x="0" y="355" width="900" height="12" fill="#7A4F22" stroke="#111" stroke-width="2"/>

  <!-- ===== LEFT SIDE: WINDOW ===== -->
  <!-- Window frame outer -->
  <rect x="40" y="60" width="200" height="260" rx="6" fill="#1A1A3A" stroke="#111" stroke-width="3"/>
  <!-- Night sky -->
  <rect x="46" y="66" width="188" height="248" fill="#0A0A2A"/>
  <!-- Stars -->
  <circle cx="80" cy="90" r="1.5" fill="white" opacity="0.8"/>
  <circle cx="130" cy="75" r="2" fill="white" opacity="0.9"/>
  <circle cx="160" cy="100" r="1" fill="white" opacity="0.7"/>
  <circle cx="200" cy="82" r="1.5" fill="white" opacity="0.8"/>
  <circle cx="95" cy="118" r="1" fill="white" opacity="0.6"/>
  <circle cx="175" cy="95" r="1.5" fill="white" opacity="0.7"/>
  <circle cx="220" cy="120" r="1" fill="white" opacity="0.6"/>
  <circle cx="70" cy="140" r="1" fill="white" opacity="0.5"/>
  <!-- Moon -->
  <circle cx="200" cy="100" r="22" fill="#FFFAAA" opacity="0.9"/>
  <circle cx="210" cy="93" r="18" fill="#0A0A2A"/>
  <!-- City skyline silhouette -->
  <rect x="46" y="240" width="20" height="74" fill="#1A1A3A"/>
  <rect x="60" y="220" width="30" height="94" fill="#1A1A3A"/>
  <rect x="84" y="250" width="16" height="64" fill="#1A1A3A"/>
  <rect x="100" y="205" width="24" height="109" fill="#1A1A3A"/>
  <rect x="118" y="232" width="18" height="82" fill="#1A1A3A"/>
  <rect x="130" y="218" width="28" height="96" fill="#1A1A3A"/>
  <rect x="152" y="240" width="22" height="74" fill="#1A1A3A"/>
  <rect x="168" y="228" width="16" height="86" fill="#1A1A3A"/>
  <rect x="178" y="248" width="14" height="66" fill="#1A1A3A"/>
  <rect x="186" y="220" width="20" height="94" fill="#1A1A3A"/>
  <rect x="200" y="252" width="18" height="62" fill="#1A1A3A"/>
  <rect x="212" y="238" width="22" height="76" fill="#1A1A3A"/>
  <!-- Building windows lit -->
  <rect x="104" y="215" width="5" height="4" fill="#FFE880"/>
  <rect x="112" y="225" width="5" height="4" fill="#FFE880"/>
  <rect x="134" y="226" width="5" height="4" fill="#FFD860"/>
  <rect x="64" y="230" width="4" height="3" fill="#FFE880"/>
  <rect x="71" y="242" width="4" height="3" fill="#FFCC44"/>
  <!-- Rain drops on window -->
  <path d="M70 80 Q71 95 70 110" stroke="#A0C0FF" stroke-width="1.5" fill="none" opacity="0.5"/>
  <path d="M110 70 Q111 88 110 105" stroke="#A0C0FF" stroke-width="1.5" fill="none" opacity="0.4"/>
  <path d="M150 85 Q151 102 150 118" stroke="#A0C0FF" stroke-width="1" fill="none" opacity="0.4"/>
  <path d="M190 68 Q191 86 190 102" stroke="#A0C0FF" stroke-width="1.5" fill="none" opacity="0.5"/>
  <path d="M88 96 Q89 112 88 126" stroke="#A0C0FF" stroke-width="1" fill="none" opacity="0.4"/>
  <!-- Window cross panes -->
  <line x1="140" y1="66" x2="140" y2="314" stroke="#8B5E3C" stroke-width="4"/>
  <line x1="46" y1="190" x2="234" y2="190" stroke="#8B5E3C" stroke-width="4"/>
  <!-- Window frame sill -->
  <rect x="34" y="316" width="212" height="14" rx="3" fill="#8B5E3C" stroke="#111" stroke-width="2"/>

  <!-- Curtain left -->
  <path d="M34 60 Q48 120 44 200 Q40 280 50 340" stroke="#8B0000" stroke-width="3" fill="#AA2020" opacity="0.9"/>
  <path d="M34 60 L50 60 Q55 200 50 340 L34 340 Z" fill="#AA2020" stroke="#111" stroke-width="2"/>
  <!-- Curtain right -->
  <path d="M250 340 Q256 280 252 200 Q248 120 254 60 L242 60 Z" fill="#AA2020" stroke="#111" stroke-width="2"/>

  <!-- Curtain rod -->
  <rect x="28" y="52" width="232" height="10" rx="5" fill="#D4A843" stroke="#111" stroke-width="2"/>
  <circle cx="28" cy="57" r="7" fill="#D4A843" stroke="#111" stroke-width="2"/>
  <circle cx="260" cy="57" r="7" fill="#D4A843" stroke="#111" stroke-width="2"/>

  <!-- ===== BOOKSHELF (left of center) ===== -->
  <!-- Shelf frame -->
  <rect x="288" y="50" width="180" height="310" rx="4" fill="#7A4F22" stroke="#111" stroke-width="2.5"/>
  <rect x="296" y="58" width="164" height="294" fill="#8B5E3C"/>
  <!-- Shelf boards -->
  <rect x="288" y="120" width="180" height="10" fill="#6B3A10" stroke="#111" stroke-width="1.5"/>
  <rect x="288" y="200" width="180" height="10" fill="#6B3A10" stroke="#111" stroke-width="1.5"/>
  <rect x="288" y="280" width="180" height="10" fill="#6B3A10" stroke="#111" stroke-width="1.5"/>

  <!-- Books row 1 (top) -->
  <rect x="300" y="68" width="18" height="50" rx="2" fill="#FF3B3F" stroke="#111" stroke-width="1.5"/>
  <text x="309" y="68" font-size="7" fill="white" font-weight="bold" text-anchor="middle" font-family="sans-serif" transform="rotate(90,309,95)">KI</text>
  <rect x="320" y="72" width="15" height="46" rx="2" fill="#0066FF" stroke="#111" stroke-width="1.5"/>
  <text x="327" y="72" font-size="6" fill="white" font-weight="bold" text-anchor="middle" font-family="sans-serif" transform="rotate(90,327,95)">ML</text>
  <rect x="337" y="65" width="20" height="53" rx="2" fill="#00C853" stroke="#111" stroke-width="1.5"/>
  <text x="347" y="65" font-size="7" fill="white" font-weight="bold" text-anchor="middle" font-family="sans-serif" transform="rotate(90,347,92)">AI</text>
  <rect x="359" y="70" width="16" height="48" rx="2" fill="#FFE135" stroke="#111" stroke-width="1.5"/>
  <text x="367" y="70" font-size="6" fill="#111" font-weight="bold" text-anchor="middle" font-family="sans-serif" transform="rotate(90,367,94)">DATA</text>
  <rect x="377" y="68" width="18" height="50" rx="2" fill="#9C27B0" stroke="#111" stroke-width="1.5"/>
  <text x="386" y="68" font-size="7" fill="white" font-weight="bold" text-anchor="middle" font-family="sans-serif" transform="rotate(90,386,93)">SQL</text>
  <rect x="397" y="74" width="14" height="44" rx="2" fill="#FF9800" stroke="#111" stroke-width="1.5"/>
  <rect x="413" y="66" width="16" height="52" rx="2" fill="#00BCD4" stroke="#111" stroke-width="1.5"/>
  <rect x="431" y="70" width="20" height="48" rx="2" fill="#E91E63" stroke="#111" stroke-width="1.5"/>

  <!-- Books row 2 -->
  <rect x="300" y="132" width="22" height="56" rx="2" fill="#3F51B5" stroke="#111" stroke-width="1.5"/>
  <rect x="324" y="138" width="16" height="50" rx="2" fill="#FF5722" stroke="#111" stroke-width="1.5"/>
  <rect x="342" y="128" width="20" height="60" rx="2" fill="#009688" stroke="#111" stroke-width="1.5"/>
  <rect x="364" y="136" width="18" height="52" rx="2" fill="#795548" stroke="#111" stroke-width="1.5"/>
  <rect x="384" y="130" width="15" height="58" rx="2" fill="#607D8B" stroke="#111" stroke-width="1.5"/>
  <rect x="401" y="134" width="22" height="54" rx="2" fill="#CDDC39" stroke="#111" stroke-width="1.5"/>
  <rect x="425" y="132" width="18" height="56" rx="2" fill="#FF1744" stroke="#111" stroke-width="1.5"/>

  <!-- Books row 3 -->
  <rect x="300" y="212" width="18" height="54" rx="2" fill="#00C853" stroke="#111" stroke-width="1.5"/>
  <rect x="320" y="218" width="20" height="48" rx="2" fill="#FFD600" stroke="#111" stroke-width="1.5"/>
  <rect x="342" y="208" width="16" height="58" rx="2" fill="#FF3B3F" stroke="#111" stroke-width="1.5"/>
  <rect x="360" y="214" width="24" height="52" rx="2" fill="#1A237E" stroke="#111" stroke-width="1.5"/>
  <rect x="386" y="210" width="18" height="56" rx="2" fill="#BF360C" stroke="#111" stroke-width="1.5"/>
  <rect x="406" y="216" width="14" height="50" rx="2" fill="#4A148C" stroke="#111" stroke-width="1.5"/>
  <rect x="422" y="212" width="20" height="54" rx="2" fill="#1B5E20" stroke="#111" stroke-width="1.5"/>

  <!-- Small decorative items row 4 -->
  <rect x="310" y="292" width="12" height="32" rx="2" fill="#8D6E63" stroke="#111" stroke-width="1.5"/>
  <!-- Small globe -->
  <circle cx="350" cy="305" r="16" fill="#1A5C4A" stroke="#111" stroke-width="2"/>
  <circle cx="350" cy="305" r="16" fill="none" stroke="#0A3020" stroke-width="1"/>
  <ellipse cx="350" cy="305" rx="8" ry="16" fill="none" stroke="#0A3020" stroke-width="1"/>
  <line x1="334" y1="305" x2="366" y2="305" stroke="#0A3020" stroke-width="1"/>
  <!-- Globe base -->
  <rect x="344" y="320" width="12" height="8" rx="2" fill="#8B5E3C" stroke="#111" stroke-width="1.5"/>
  <!-- Small plant -->
  <rect x="400" y="310" width="16" height="22" rx="2" fill="#8B5E3C" stroke="#111" stroke-width="1.5"/>
  <path d="M408 310 Q400 290 392 280" stroke="#2D6A2D" stroke-width="4" fill="none" stroke-linecap="round"/>
  <path d="M408 305 Q416 285 422 278" stroke="#2D6A2D" stroke-width="4" fill="none" stroke-linecap="round"/>
  <path d="M408 308 Q404 295 404 288" stroke="#3A8A3A" stroke-width="3" fill="none" stroke-linecap="round"/>

  <!-- ===== DESK (center) ===== -->
  <!-- Desk surface -->
  <rect x="400" y="300" width="340" height="26" rx="4" fill="#8B5E3C" stroke="#111" stroke-width="2.5"/>
  <!-- Desk front panel -->
  <rect x="400" y="320" width="340" height="44" rx="4" fill="#7A4F22" stroke="#111" stroke-width="2.5"/>
  <!-- Desk legs -->
  <rect x="412" y="358" width="20" height="60" rx="3" fill="#6B3A10" stroke="#111" stroke-width="2"/>
  <rect x="706" y="358" width="20" height="60" rx="3" fill="#6B3A10" stroke="#111" stroke-width="2"/>
  <!-- Desk side drawers -->
  <rect x="650" y="322" width="80" height="18" rx="2" fill="#6B3A10" stroke="#111" stroke-width="1.5"/>
  <rect x="650" y="343" width="80" height="18" rx="2" fill="#6B3A10" stroke="#111" stroke-width="1.5"/>
  <!-- Drawer pulls -->
  <rect x="684" y="329" width="12" height="4" rx="2" fill="#D4A843" stroke="#111" stroke-width="1"/>
  <rect x="684" y="350" width="12" height="4" rx="2" fill="#D4A843" stroke="#111" stroke-width="1"/>

  <!-- Papers on desk -->
  <rect x="415" y="288" width="80" height="15" rx="2" fill="white" stroke="#DDD" stroke-width="1" transform="rotate(-5,455,295)"/>
  <rect x="420" y="285" width="80" height="15" rx="2" fill="#FFFDE0" stroke="#DDD" stroke-width="1" transform="rotate(3,460,292)"/>
  <rect x="430" y="282" width="80" height="15" rx="2" fill="white" stroke="#DDD" stroke-width="1" transform="rotate(-2,470,290)"/>
  <!-- Paper lines -->
  <line x1="435" y1="287" x2="495" y2="287" stroke="#AAA" stroke-width="1" transform="rotate(3,460,292)"/>
  <line x1="435" y1="291" x2="495" y2="291" stroke="#AAA" stroke-width="1" transform="rotate(3,460,292)"/>

  <!-- DESK LAMP -->
  <!-- Base -->
  <ellipse cx="560" cy="301" rx="28" ry="8" fill="#3A3A3A" stroke="#111" stroke-width="2"/>
  <!-- Pole -->
  <rect x="557" y="248" width="8" height="55" rx="3" fill="#5A5A5A" stroke="#111" stroke-width="1.5"/>
  <!-- Arm -->
  <line x1="561" y1="250" x2="530" y2="220" stroke="#5A5A5A" stroke-width="8" stroke-linecap="round"/>
  <line x1="561" y1="250" x2="530" y2="220" stroke="#111" stroke-width="2" stroke-linecap="round"/>
  <!-- Shade -->
  <path d="M510 215 Q530 200 550 215 L542 232 Q530 240 518 232 Z" fill="#D4A843" stroke="#111" stroke-width="2"/>
  <!-- Light cone (warm yellow glow) -->
  <path d="M518 232 Q530 244 542 232 Q560 280 560 300 Q530 310 500 300 Z" fill="#FFE880" opacity="0.25"/>
  <!-- Lamp glow on desk -->
  <ellipse cx="530" cy="300" rx="60" ry="12" fill="#FFE135" opacity="0.2"/>

  <!-- Folders on desk -->
  <rect x="600" y="284" width="60" height="18" rx="2" fill="#FF5722" stroke="#111" stroke-width="1.5" transform="rotate(-8,630,293)"/>
  <rect x="604" y="282" width="60" height="18" rx="2" fill="#0066FF" stroke="#111" stroke-width="1.5" transform="rotate(4,634,291)"/>

  <!-- ===== CORK BOARD / CASE BOARD (right wall) ===== -->
  <!-- Board frame -->
  <rect x="620" y="40" width="260" height="250" rx="6" fill="#5A3A10" stroke="#111" stroke-width="3"/>
  <!-- Cork surface -->
  <rect x="628" y="48" width="244" height="234" fill="#C8A96E"/>
  <!-- Cork texture -->
  <rect x="628" y="48" width="244" height="234" fill="none" stroke="#B89050" stroke-width="1" stroke-dasharray="3 8"/>

  <!-- PHOTO CARDS on board -->
  <!-- Suspect 1 photo -->
  <rect x="640" y="65" width="64" height="80" rx="3" fill="white" stroke="#111" stroke-width="2"/>
  <rect x="644" y="68" width="56" height="64" fill="#EEEEEE"/>
  <!-- Simple face sketch -->
  <circle cx="672" cy="90" r="18" fill="#DDD" stroke="#888" stroke-width="1.5"/>
  <circle cx="665" cy="87" r="3" fill="#888"/>
  <circle cx="679" cy="87" r="3" fill="#888"/>
  <path d="M666 98 Q672 103 678 98" stroke="#888" stroke-width="1.5" fill="none"/>
  <!-- Hat on face sketch -->
  <ellipse cx="672" cy="75" rx="18" ry="4" fill="#888"/>
  <rect x="660" y="68" width="24" height="9" rx="3" fill="#666"/>
  <text x="672" y="156" text-anchor="middle" font-size="8" fill="#111" font-family="sans-serif">Gustav G.</text>

  <!-- Suspect 2 photo -->
  <rect x="718" y="75" width="64" height="80" rx="3" fill="white" stroke="#111" stroke-width="2"/>
  <rect x="722" y="78" width="56" height="64" fill="#EEEEEE"/>
  <circle cx="750" cy="100" r="18" fill="#DDD" stroke="#888" stroke-width="1.5"/>
  <circle cx="743" cy="97" r="3" fill="#888"/>
  <circle cx="757" cy="97" r="3" fill="#888"/>
  <rect x="740" y="92" width="20" height="12" rx="2" fill="none" stroke="#888" stroke-width="1.5"/>
  <path d="M744 108 Q750 113 756 108" stroke="#888" stroke-width="1.5" fill="none"/>
  <!-- Hair bun -->
  <ellipse cx="750" cy="84" rx="10" ry="8" fill="#555"/>
  <text x="750" y="166" text-anchor="middle" font-size="8" fill="#111" font-family="sans-serif">Maria M.</text>

  <!-- Suspect 3 photo -->
  <rect x="796" y="60" width="64" height="80" rx="3" fill="white" stroke="#111" stroke-width="2"/>
  <rect x="800" y="63" width="56" height="64" fill="#EEEEEE"/>
  <circle cx="828" cy="85" r="18" fill="#DDD" stroke="#888" stroke-width="1.5"/>
  <circle cx="821" cy="82" r="3" fill="#888"/>
  <circle cx="835" cy="82" r="3" fill="#888"/>
  <!-- Beard on sketch -->
  <ellipse cx="828" cy="98" rx="14" ry="8" fill="#555"/>
  <ellipse cx="828" cy="75" rx="12" ry="5" fill="#555"/>
  <text x="828" y="156" text-anchor="middle" font-size="8" fill="#111" font-family="sans-serif">Boris B.</text>

  <!-- RED STRING connecting photos -->
  <line x1="672" y1="110" x2="750" y2="120" stroke="#FF3B3F" stroke-width="2.5"/>
  <line x1="750" y1="120" x2="828" y2="105" stroke="#FF3B3F" stroke-width="2.5"/>
  <line x1="672" y1="110" x2="828" y2="105" stroke="#FF3B3F" stroke-width="2"/>

  <!-- Push pins -->
  <circle cx="672" cy="66" r="5" fill="#FF3B3F" stroke="#111" stroke-width="1.5"/>
  <circle cx="750" cy="76" r="5" fill="#0066FF" stroke="#111" stroke-width="1.5"/>
  <circle cx="828" cy="61" r="5" fill="#00C853" stroke="#111" stroke-width="1.5"/>

  <!-- STICKY NOTES -->
  <rect x="640" y="172" width="80" height="60" rx="3" fill="#FFE135" stroke="#D4A800" stroke-width="1.5" transform="rotate(-4,680,202)"/>
  <text x="648" y="188" font-size="7" fill="#111" font-family="sans-serif" transform="rotate(-4,680,202)">Motiv?</text>
  <text x="648" y="198" font-size="7" fill="#111" font-family="sans-serif" transform="rotate(-4,680,202)">Alibi prüfen!</text>
  <text x="648" y="208" font-size="7" fill="#111" font-family="sans-serif" transform="rotate(-4,680,202)">⚠ Merkmal:</text>
  <text x="648" y="218" font-size="7" fill="#111" font-family="sans-serif" transform="rotate(-4,680,202)">Hut? Bart?</text>

  <rect x="760" y="168" width="70" height="55" rx="3" fill="#FF9800" stroke="#CC7000" stroke-width="1.5" transform="rotate(5,795,195)"/>
  <text x="768" y="184" font-size="7" fill="#111" font-family="sans-serif" transform="rotate(5,795,195)">Entscheidungs-</text>
  <text x="768" y="194" font-size="7" fill="#111" font-family="sans-serif" transform="rotate(5,795,195)">baum?</text>
  <text x="768" y="204" font-size="7" fill="#111" font-family="sans-serif" transform="rotate(5,795,195)">KLASSIFIKATION</text>
  <text x="768" y="214" font-size="7" fill="#111" font-family="sans-serif" transform="rotate(5,795,195)">→ Lösung!</text>

  <!-- CITY MAP on board (lower section) -->
  <rect x="636" y="240" width="108" height="32" rx="2" fill="#D4E8FF" stroke="#111" stroke-width="1.5"/>
  <!-- Map grid -->
  <line x1="636" y1="255" x2="744" y2="255" stroke="#9ABCFF" stroke-width="1"/>
  <line x1="660" y1="240" x2="660" y2="272" stroke="#9ABCFF" stroke-width="1"/>
  <line x1="692" y1="240" x2="692" y2="272" stroke="#9ABCFF" stroke-width="1"/>
  <line x1="720" y1="240" x2="720" y2="272" stroke="#9ABCFF" stroke-width="1"/>
  <!-- Map pin -->
  <circle cx="678" cy="250" r="4" fill="#FF3B3F" stroke="#111" stroke-width="1"/>

  <!-- FILING CABINET (far right wall) -->
  <rect x="856" y="250" width="50" height="108" rx="3" fill="#6A6A7A" stroke="#111" stroke-width="2.5"/>
  <rect x="860" y="258" width="42" height="28" rx="2" fill="#5A5A6A" stroke="#555" stroke-width="1.5"/>
  <rect x="878" y="268" width="12" height="4" rx="2" fill="#D4A843" stroke="#888" stroke-width="1"/>
  <rect x="860" y="292" width="42" height="28" rx="2" fill="#5A5A6A" stroke="#555" stroke-width="1.5"/>
  <rect x="878" y="302" width="12" height="4" rx="2" fill="#D4A843" stroke="#888" stroke-width="1"/>
  <!-- Open drawer slightly -->
  <rect x="856" y="316" width="52" height="30" rx="2" fill="#6A6A7A" stroke="#111" stroke-width="1.5"/>
  <rect x="860" y="320" width="42" height="22" rx="2" fill="#5A5A6A" stroke="#555" stroke-width="1.5"/>
  <rect x="878" y="328" width="12" height="4" rx="2" fill="#D4A843" stroke="#888" stroke-width="1"/>
  <rect x="858" y="346" width="44" height="8" rx="1" fill="#4A4A5A" stroke="#555" stroke-width="1"/>

  <!-- WALL CLOCK (upper right) -->
  <circle cx="830" cy="28" r="22" fill="white" stroke="#111" stroke-width="2.5"/>
  <circle cx="830" cy="28" r="18" fill="none" stroke="#DDD" stroke-width="1"/>
  <!-- Clock hands -->
  <line x1="830" y1="28" x2="830" y2="14" stroke="#111" stroke-width="2.5" stroke-linecap="round"/>
  <line x1="830" y1="28" x2="841" y2="32" stroke="#111" stroke-width="2" stroke-linecap="round"/>
  <circle cx="830" cy="28" r="3" fill="#111"/>
  <!-- Clock numbers -->
  <text x="830" y="12" text-anchor="middle" font-size="6" fill="#555" font-family="sans-serif">12</text>
  <text x="848" y="32" text-anchor="middle" font-size="6" fill="#555" font-family="sans-serif">3</text>
  <text x="830" y="49" text-anchor="middle" font-size="6" fill="#555" font-family="sans-serif">6</text>

  <!-- FLOOR RUG -->
  <ellipse cx="580" cy="390" rx="180" ry="40" fill="#8B2020" stroke="#111" stroke-width="2" opacity="0.7"/>
  <!-- Rug pattern -->
  <ellipse cx="580" cy="390" rx="150" ry="32" fill="none" stroke="#FF6060" stroke-width="2" opacity="0.5"/>
  <ellipse cx="580" cy="390" rx="100" ry="22" fill="none" stroke="#FF6060" stroke-width="1.5" opacity="0.5"/>

  <!-- SHADOW at base of wall objects -->
  <rect x="288" y="352" width="180" height="8" rx="2" fill="#111" opacity="0.15"/>
  <rect x="620" y="282" width="260" height="8" rx="2" fill="#111" opacity="0.12"/>
</svg>
